<?xml version="1.0" encoding="utf-8"?>
<!-- Generator: Adobe Illustrator 19.0.0, SVG Export Plug-In . SVG Version: 6.00 Build 0)  -->
<!DOCTYPE svg PUBLIC "-//W3C//DTD SVG 1.1//EN" "http://www.w3.org/Graphics/SVG/1.1/DTD/svg11.dtd">
<svg version="1.1" xmlns="http://www.w3.org/2000/svg" xmlns:xlink="http://www.w3.org/1999/xlink" x="0px" y="0px"
	 viewBox="0 0 117.7 134.5" enable-background="new 0 0 117.7 134.5" xml:space="preserve">
<g id="Layer_4">
</g>
<g id="Layer_6">
	<g>
		<g>
			<g>
				<path fill="#BFBF56" d="M48.8,85.7C39,75.4,39.3,59,49.6,49.1c10.3-9.9,26.7-9.5,36.5,0.8c0,0,0.1,0.1,0.1,0.1l4.7-4.5
					c0,0-0.1-0.1-0.1-0.1c-12.3-12.9-32.8-13.3-45.7-1c-12.9,12.3-13.3,32.8-1,45.7c12.3,12.8,32.6,13.3,45.5,1.1l-4.5-4.7
					C74.9,96.3,58.6,95.9,48.8,85.7z"/>
			</g>
			<g>
				<path fill="#E66B5B" d="M85.9,96.3c-13.4,8.6-31.5,6.9-42.9-5c-12.9-13.5-12.5-35,1-48c13.5-12.9,35-12.5,48,1
					c0,0,0.1,0.1,0.1,0.1l4.7-4.5c0,0-0.1-0.1-0.1-0.1c-15.4-16.1-41-16.7-57.1-1.2c-16.1,15.4-16.7,41-1.2,57.1
					c13.9,14.5,36.1,16.4,52.1,5.3L85.9,96.3z"/>
			</g>
			<g>
				<g>
					<g>
						<path fill="#8BC4C6" d="M86.1,105.5c-16,7.9-35.9,4.9-48.9-8.6c-16-16.7-15.4-43.4,1.3-59.4c16.7-16,43.4-15.4,59.4,1.3
							c0,0,0.1,0.1,0.1,0.1l4.7-4.5c0,0-0.1-0.1-0.1-0.1C84,15,53.3,14.3,34,32.8C14.7,51.3,14,82,32.5,101.3
							c15.5,16.2,39.5,19.3,58.3,9L86.1,105.5z"/>
					</g>
				</g>
			</g>
			<g>
				<path fill="#017D8D" d="M86,114.3c-18.4,7.3-40.2,3.3-54.7-11.9c-19.1-19.9-18.4-51.7,1.5-70.8c19.9-19.1,51.7-18.4,70.8,1.5
					c0,0,0.1,0.1,0.1,0.1l4.7-4.5c0,0-0.1-0.1-0.1-0.1C86.7,6.2,51,5.4,28.4,27C5.9,48.6,5.1,84.4,26.7,106.9
					c17,17.8,42.9,22,64.1,12.4L86,114.3z"/>
			</g>
			<g>
				<path fill="#464646" d="M85.8,123c-20.6,6.8-44.3,1.7-60.2-15C3.3,84.9,4.1,48,27.3,25.8c23.2-22.2,60-21.4,82.2,1.8
					c0,0,0.1,0.1,0.1,0.1l4.7-4.5c0,0-0.1-0.1-0.1-0.1c-24.7-25.8-65.6-26.7-91.4-2c-25.8,24.7-26.7,65.6-2,91.4
					c18.6,19.4,46.3,24.7,69.8,15.6L85.8,123z"/>
			</g>
		</g>
	</g>
</g>
</svg>
